<svg width="16" height="18" viewBox="0 0 16 18" fill="none" xmlns="http://www.w3.org/2000/svg">
<path fill-rule="evenodd" clip-rule="evenodd" d="M15.1 11.675L13.6 10.1667V6.45003C13.6413 3.59615 11.5712 1.1491 8.75 0.716693C7.14813 0.505739 5.533 0.994825 4.31727 2.05899C3.10153 3.12316 2.40295 4.65933 2.4 6.27503V10.1667L0.899996 11.675C0.514798 12.0666 0.401507 12.6508 0.612394 13.1581C0.823281 13.6653 1.31736 13.9969 1.86666 14H4.66666V14.2834C4.74771 16.0448 6.23834 17.4087 8 17.3334C9.76165 17.4087 11.2523 16.0448 11.3333 14.2834V14H14.1333C14.6826 13.9969 15.1767 13.6653 15.3876 13.1581C15.5985 12.6508 15.4852 12.0666 15.1 11.675ZM9.66666 14.2834C9.57065 15.1161 8.83617 15.7257 8 15.6667C7.16382 15.7257 6.42934 15.1161 6.33333 14.2834V14H9.66666V14.2834ZM3.575 11.35L2.59166 12.3334H13.4083L12.4167 11.35C12.1047 11.0355 11.9308 10.6097 11.9333 10.1667V6.41669C11.976 4.39844 10.5259 2.6569 8.53333 2.33336C7.40174 2.18568 6.26235 2.54211 5.41666 3.30836C4.55973 4.05617 4.06758 5.13768 4.06666 6.27503V10.1667C4.06701 10.6109 3.89003 11.0369 3.575 11.35Z" fill="black"/>
</svg>
