<svg width="18" height="18" viewBox="0 0 18 18" fill="none" xmlns="http://www.w3.org/2000/svg">
<path fill-rule="evenodd" clip-rule="evenodd" d="M0.666687 9.00002C0.666687 4.39765 4.39765 0.666687 9.00002 0.666687C11.2102 0.666687 13.3298 1.54466 14.8926 3.10746C16.4554 4.67027 17.3334 6.78988 17.3334 9.00002C17.3334 13.6024 13.6024 17.3334 9.00002 17.3334C4.39765 17.3334 0.666687 13.6024 0.666687 9.00002ZM2.33335 9.00002C2.33335 12.6819 5.31812 15.6667 9.00002 15.6667C10.7681 15.6667 12.4638 14.9643 13.7141 13.7141C14.9643 12.4638 15.6667 10.7681 15.6667 9.00002C15.6667 5.31812 12.6819 2.33335 9.00002 2.33335C5.31812 2.33335 2.33335 5.31812 2.33335 9.00002Z" fill="black"/>
</svg>
